<svg xmlns="http://www.w3.org/2000/svg" width="124" height="13" viewBox="0 0 124 13" fill="none">
  <path d="M113.815 5.26176H121.743V0.173706H124V12.6247H121.743V7.53662H113.815V12.6247H111.558V0.173706H113.815V5.26176Z" fill="url(#paint0_linear_217_1961)"/>
  <path d="M113.815 5.26176H121.743V0.173706H124V12.6247H121.743V7.53662H113.815V12.6247H111.558V0.173706H113.815V5.26176Z" fill="url(#paint1_linear_217_1961)"/>
  <path d="M110.45 12.6247H102.306C102.098 12.6247 101.872 12.6015 101.629 12.5552C101.391 12.5031 101.154 12.425 100.917 12.3208C100.685 12.2166 100.462 12.0835 100.248 11.9214C100.034 11.7535 99.843 11.5538 99.6752 11.3223C99.5131 11.0849 99.3829 10.8129 99.2844 10.5061C99.186 10.1935 99.1368 9.84332 99.1368 9.4555V3.34289C99.1368 3.1345 99.16 2.91165 99.2063 2.67432C99.2584 2.4312 99.3365 2.19388 99.4407 1.96234C99.5449 1.72501 99.681 1.49926 99.8488 1.28509C100.017 1.07092 100.216 0.882792 100.448 0.720715C100.685 0.55285 100.957 0.419716 101.264 0.321312C101.571 0.222908 101.918 0.173706 102.306 0.173706H110.45V2.4312H102.306C102.011 2.4312 101.785 2.50935 101.629 2.66564C101.472 2.82193 101.394 3.05346 101.394 3.36025V9.4555C101.394 9.74492 101.472 9.97067 101.629 10.1327C101.791 10.289 102.017 10.3672 102.306 10.3672H110.45V12.6247Z" fill="url(#paint2_linear_217_1961)"/>
  <path d="M110.45 12.6247H102.306C102.098 12.6247 101.872 12.6015 101.629 12.5552C101.391 12.5031 101.154 12.425 100.917 12.3208C100.685 12.2166 100.462 12.0835 100.248 11.9214C100.034 11.7535 99.843 11.5538 99.6752 11.3223C99.5131 11.0849 99.3829 10.8129 99.2844 10.5061C99.186 10.1935 99.1368 9.84332 99.1368 9.4555V3.34289C99.1368 3.1345 99.16 2.91165 99.2063 2.67432C99.2584 2.4312 99.3365 2.19388 99.4407 1.96234C99.5449 1.72501 99.681 1.49926 99.8488 1.28509C100.017 1.07092 100.216 0.882792 100.448 0.720715C100.685 0.55285 100.957 0.419716 101.264 0.321312C101.571 0.222908 101.918 0.173706 102.306 0.173706H110.45V2.4312H102.306C102.011 2.4312 101.785 2.50935 101.629 2.66564C101.472 2.82193 101.394 3.05346 101.394 3.36025V9.4555C101.394 9.74492 101.472 9.97067 101.629 10.1327C101.791 10.289 102.017 10.3672 102.306 10.3672H110.45V12.6247Z" fill="url(#paint3_linear_217_1961)"/>
  <path d="M97.717 12.6247H95.4595V9.56837H87.5235V12.6247H85.266V6.39919C85.266 5.4904 85.4223 4.65397 85.7349 3.8899C86.0474 3.12582 86.4816 2.46883 87.0373 1.91893C87.593 1.36902 88.2499 0.940677 89.0082 0.633888C89.7665 0.3271 90.5943 0.173706 91.4915 0.173706H96.5795C96.7358 0.173706 96.8834 0.202648 97.0223 0.260533C97.1613 0.318418 97.2828 0.399456 97.387 0.503648C97.4912 0.60784 97.5723 0.729398 97.6301 0.868321C97.688 1.00724 97.717 1.15485 97.717 1.31114V12.6247ZM87.5235 7.31087H95.4595V2.4312H91.4915C91.422 2.4312 91.2744 2.44278 91.0487 2.46594C90.8287 2.4833 90.5711 2.5325 90.2759 2.61354C89.9865 2.69458 89.6797 2.81903 89.3555 2.9869C89.0314 3.15476 88.7333 3.3863 88.4612 3.68151C88.1892 3.97672 87.9634 4.34718 87.784 4.7929C87.6103 5.23282 87.5235 5.76825 87.5235 6.39919V7.31087Z" fill="url(#paint4_linear_217_1961)"/>
  <path d="M97.717 12.6247H95.4595V9.56837H87.5235V12.6247H85.266V6.39919C85.266 5.4904 85.4223 4.65397 85.7349 3.8899C86.0474 3.12582 86.4816 2.46883 87.0373 1.91893C87.593 1.36902 88.2499 0.940677 89.0082 0.633888C89.7665 0.3271 90.5943 0.173706 91.4915 0.173706H96.5795C96.7358 0.173706 96.8834 0.202648 97.0223 0.260533C97.1613 0.318418 97.2828 0.399456 97.387 0.503648C97.4912 0.60784 97.5723 0.729398 97.6301 0.868321C97.688 1.00724 97.717 1.15485 97.717 1.31114V12.6247ZM87.5235 7.31087H95.4595V2.4312H91.4915C91.422 2.4312 91.2744 2.44278 91.0487 2.46594C90.8287 2.4833 90.5711 2.5325 90.2759 2.61354C89.9865 2.69458 89.6797 2.81903 89.3555 2.9869C89.0314 3.15476 88.7333 3.3863 88.4612 3.68151C88.1892 3.97672 87.9634 4.34718 87.784 4.7929C87.6103 5.23282 87.5235 5.76825 87.5235 6.39919V7.31087Z" fill="url(#paint5_linear_217_1961)"/>
  <path d="M84.315 7.58867C84.315 8.34696 84.1847 9.04447 83.9243 9.6812C83.6638 10.3179 83.302 10.8678 82.8389 11.3309C82.3758 11.794 81.8259 12.1558 81.1892 12.4162C80.5583 12.6709 79.8694 12.7983 79.1227 12.7983H76.0664C75.3197 12.7983 74.628 12.6709 73.9913 12.4162C73.3545 12.1558 72.8046 11.794 72.3416 11.3309C71.8785 10.8678 71.5138 10.3179 71.2475 9.6812C70.9871 9.04447 70.8568 8.34696 70.8568 7.58867V5.20961C70.8568 4.45711 70.9871 3.7625 71.2475 3.12577C71.5138 2.48325 71.8785 1.93334 72.3416 1.47606C72.8046 1.01298 73.3545 0.651201 73.9913 0.390721C74.628 0.13024 75.3197 0 76.0664 0H79.1227C79.8694 0 80.5583 0.13024 81.1892 0.390721C81.8259 0.651201 82.3758 1.01298 82.8389 1.47606C83.302 1.93334 83.6638 2.48325 83.9243 3.12577C84.1847 3.7625 84.315 4.45711 84.315 5.20961V7.58867ZM82.0575 5.20961C82.0575 4.7639 81.9851 4.3616 81.8404 4.00272C81.7015 3.63805 81.5018 3.32836 81.2413 3.07367C80.9866 2.81319 80.6769 2.61349 80.3123 2.47457C79.9534 2.32985 79.5569 2.2575 79.1227 2.2575H76.0664C75.6265 2.2575 75.2242 2.32985 74.8595 2.47457C74.5006 2.61349 74.191 2.81319 73.9305 3.07367C73.67 3.32836 73.4674 3.63805 73.3227 4.00272C73.1838 4.3616 73.1143 4.7639 73.1143 5.20961V7.58867C73.1143 8.03438 73.1838 8.43957 73.3227 8.80424C73.4674 9.16313 73.67 9.47281 73.9305 9.73329C74.191 9.98798 74.5006 10.1877 74.8595 10.3324C75.2242 10.4713 75.6265 10.5408 76.0664 10.5408H79.1054C79.5453 10.5408 79.9447 10.4713 80.3036 10.3324C80.6682 10.1877 80.9808 9.98798 81.2413 9.73329C81.5018 9.47281 81.7015 9.16313 81.8404 8.80424C81.9851 8.43957 82.0575 8.03438 82.0575 7.58867V5.20961Z" fill="url(#paint6_linear_217_1961)"/>
  <path d="M84.315 7.58867C84.315 8.34696 84.1847 9.04447 83.9243 9.6812C83.6638 10.3179 83.302 10.8678 82.8389 11.3309C82.3758 11.794 81.8259 12.1558 81.1892 12.4162C80.5583 12.6709 79.8694 12.7983 79.1227 12.7983H76.0664C75.3197 12.7983 74.628 12.6709 73.9913 12.4162C73.3545 12.1558 72.8046 11.794 72.3416 11.3309C71.8785 10.8678 71.5138 10.3179 71.2475 9.6812C70.9871 9.04447 70.8568 8.34696 70.8568 7.58867V5.20961C70.8568 4.45711 70.9871 3.7625 71.2475 3.12577C71.5138 2.48325 71.8785 1.93334 72.3416 1.47606C72.8046 1.01298 73.3545 0.651201 73.9913 0.390721C74.628 0.13024 75.3197 0 76.0664 0H79.1227C79.8694 0 80.5583 0.13024 81.1892 0.390721C81.8259 0.651201 82.3758 1.01298 82.8389 1.47606C83.302 1.93334 83.6638 2.48325 83.9243 3.12577C84.1847 3.7625 84.315 4.45711 84.315 5.20961V7.58867ZM82.0575 5.20961C82.0575 4.7639 81.9851 4.3616 81.8404 4.00272C81.7015 3.63805 81.5018 3.32836 81.2413 3.07367C80.9866 2.81319 80.6769 2.61349 80.3123 2.47457C79.9534 2.32985 79.5569 2.2575 79.1227 2.2575H76.0664C75.6265 2.2575 75.2242 2.32985 74.8595 2.47457C74.5006 2.61349 74.191 2.81319 73.9305 3.07367C73.67 3.32836 73.4674 3.63805 73.3227 4.00272C73.1838 4.3616 73.1143 4.7639 73.1143 5.20961V7.58867C73.1143 8.03438 73.1838 8.43957 73.3227 8.80424C73.4674 9.16313 73.67 9.47281 73.9305 9.73329C74.191 9.98798 74.5006 10.1877 74.8595 10.3324C75.2242 10.4713 75.6265 10.5408 76.0664 10.5408H79.1054C79.5453 10.5408 79.9447 10.4713 80.3036 10.3324C80.6682 10.1877 80.9808 9.98798 81.2413 9.73329C81.5018 9.47281 81.7015 9.16313 81.8404 8.80424C81.9851 8.43957 82.0575 8.03438 82.0575 7.58867V5.20961Z" fill="url(#paint7_linear_217_1961)"/>
  <path d="M70.3487 12.6247H62.2043C61.996 12.6247 61.7702 12.6015 61.5271 12.5552C61.2898 12.5031 61.0524 12.425 60.8151 12.3208C60.5836 12.2166 60.3607 12.0835 60.1465 11.9214C59.9324 11.7535 59.7413 11.5538 59.5735 11.3223C59.4114 11.0849 59.2812 10.8129 59.1828 10.5061C59.0844 10.1935 59.0352 9.84332 59.0352 9.4555V3.34289C59.0352 3.1345 59.0583 2.91165 59.1046 2.67432C59.1567 2.4312 59.2349 2.19388 59.3391 1.96234C59.4432 1.72501 59.5793 1.49926 59.7471 1.28509C59.915 1.07092 60.1147 0.882792 60.3462 0.720715C60.5836 0.55285 60.8556 0.419716 61.1624 0.321312C61.4692 0.222908 61.8165 0.173706 62.2043 0.173706H70.3487V2.4312H62.2043C61.9091 2.4312 61.6834 2.50935 61.5271 2.66564C61.3708 2.82193 61.2927 3.05346 61.2927 3.36025V9.4555C61.2927 9.74492 61.3708 9.97067 61.5271 10.1327C61.6892 10.289 61.9149 10.3672 62.2043 10.3672H70.3487V12.6247Z" fill="url(#paint8_linear_217_1961)"/>
  <path d="M70.3487 12.6247H62.2043C61.996 12.6247 61.7702 12.6015 61.5271 12.5552C61.2898 12.5031 61.0524 12.425 60.8151 12.3208C60.5836 12.2166 60.3607 12.0835 60.1465 11.9214C59.9324 11.7535 59.7413 11.5538 59.5735 11.3223C59.4114 11.0849 59.2812 10.8129 59.1828 10.5061C59.0844 10.1935 59.0352 9.84332 59.0352 9.4555V3.34289C59.0352 3.1345 59.0583 2.91165 59.1046 2.67432C59.1567 2.4312 59.2349 2.19388 59.3391 1.96234C59.4432 1.72501 59.5793 1.49926 59.7471 1.28509C59.915 1.07092 60.1147 0.882792 60.3462 0.720715C60.5836 0.55285 60.8556 0.419716 61.1624 0.321312C61.4692 0.222908 61.8165 0.173706 62.2043 0.173706H70.3487V2.4312H62.2043C61.9091 2.4312 61.6834 2.50935 61.5271 2.66564C61.3708 2.82193 61.2927 3.05346 61.2927 3.36025V9.4555C61.2927 9.74492 61.3708 9.97067 61.5271 10.1327C61.6892 10.289 61.9149 10.3672 62.2043 10.3672H70.3487V12.6247Z" fill="url(#paint9_linear_217_1961)"/>
  <path d="M54.042 12.6247H43.7444C43.5823 12.6247 43.4318 12.5957 43.2929 12.5379C43.1539 12.48 43.0324 12.4018 42.9282 12.3034C42.8298 12.1992 42.7516 12.0777 42.6938 11.9387C42.6359 11.7998 42.6069 11.6493 42.6069 11.4872V0.173706H44.8644V10.3672H54.042V12.6247Z" fill="url(#paint10_linear_217_1961)"/>
  <path d="M54.042 12.6247H43.7444C43.5823 12.6247 43.4318 12.5957 43.2929 12.5379C43.1539 12.48 43.0324 12.4018 42.9282 12.3034C42.8298 12.1992 42.7516 12.0777 42.6938 11.9387C42.6359 11.7998 42.6069 11.6493 42.6069 11.4872V0.173706H44.8644V10.3672H54.042V12.6247Z" fill="url(#paint11_linear_217_1961)"/>
  <path d="M41.9945 12.6247H31.6969C31.5348 12.6247 31.3843 12.5957 31.2454 12.5379C31.1065 12.48 30.9849 12.4018 30.8807 12.3034C30.7823 12.1992 30.7042 12.0777 30.6463 11.9387C30.5884 11.7998 30.5594 11.6493 30.5594 11.4872V0.173706H32.8169V10.3672H41.9945V12.6247Z" fill="url(#paint12_linear_217_1961)"/>
  <path d="M41.9945 12.6247H31.6969C31.5348 12.6247 31.3843 12.5957 31.2454 12.5379C31.1065 12.48 30.9849 12.4018 30.8807 12.3034C30.7823 12.1992 30.7042 12.0777 30.6463 11.9387C30.5884 11.7998 30.5594 11.6493 30.5594 11.4872V0.173706H32.8169V10.3672H41.9945V12.6247Z" fill="url(#paint13_linear_217_1961)"/>
  <path d="M28.966 12.6247H26.7085V0.173706H28.966V12.6247Z" fill="url(#paint14_linear_217_1961)"/>
  <path d="M28.966 12.6247H26.7085V0.173706H28.966V12.6247Z" fill="url(#paint15_linear_217_1961)"/>
  <path d="M26.3218 12.6247H23.1179L18.0385 7.53662H16.4496V5.26176H18.0385L23.1179 0.173706H26.3218L19.9226 6.39919L26.3218 12.6247ZM15.5466 12.6247H13.2891V0.173706H15.5466V12.6247Z" fill="url(#paint16_linear_217_1961)"/>
  <path d="M26.3218 12.6247H23.1179L18.0385 7.53662H16.4496V5.26176H18.0385L23.1179 0.173706H26.3218L19.9226 6.39919L26.3218 12.6247ZM15.5466 12.6247H13.2891V0.173706H15.5466V12.6247Z" fill="url(#paint17_linear_217_1961)"/>
  <path d="M12.4423 8.96058C12.4423 9.4063 12.3844 9.80859 12.2686 10.1675C12.1587 10.5206 12.011 10.8332 11.8258 11.1052C11.6406 11.3773 11.4235 11.6088 11.1746 11.7998C10.9257 11.9908 10.6681 12.1471 10.4019 12.2687C10.1356 12.3902 9.86353 12.48 9.58569 12.5379C9.31363 12.5957 9.05604 12.6247 8.81293 12.6247H0.104192V10.3672H8.81293C9.24706 10.3672 9.58279 10.2398 9.82012 9.98514C10.0632 9.73045 10.1848 9.38893 10.1848 8.96058C10.1848 8.7522 10.153 8.56118 10.0893 8.38753C10.0256 8.21387 9.93299 8.06337 9.81144 7.93603C9.69567 7.80868 9.55095 7.71028 9.3773 7.64082C9.20944 7.57135 9.02131 7.53662 8.81293 7.53662H3.62068C3.25601 7.53662 2.86239 7.47295 2.43983 7.3456C2.01728 7.21247 1.62366 7.00119 1.25899 6.71177C0.900105 6.42235 0.599105 6.0432 0.35599 5.57434C0.118663 5.10547 0 4.53241 0 3.85517C0 3.17792 0.118663 2.60775 0.35599 2.14468C0.599105 1.67581 0.900105 1.29667 1.25899 1.00724C1.62366 0.712033 2.01728 0.500754 2.43983 0.373408C2.86239 0.240273 3.25601 0.173706 3.62068 0.173706H11.3049V2.4312H3.62068C3.19233 2.4312 2.8566 2.56144 2.61349 2.82193C2.37616 3.08241 2.2575 3.42682 2.2575 3.85517C2.2575 4.2893 2.37616 4.63371 2.61349 4.8884C2.8566 5.13731 3.19233 5.26176 3.62068 5.26176H8.81293H8.83029C9.07341 5.26755 9.33099 5.30228 9.60305 5.36595C9.87511 5.42384 10.1443 5.51645 10.4105 5.6438C10.6826 5.77114 10.9402 5.93322 11.1833 6.13003C11.4264 6.32105 11.6406 6.55259 11.8258 6.82464C12.0168 7.0967 12.1673 7.40928 12.2773 7.76237C12.3873 8.11547 12.4423 8.51487 12.4423 8.96058Z" fill="url(#paint18_linear_217_1961)"/>
  <path d="M12.4423 8.96058C12.4423 9.4063 12.3844 9.80859 12.2686 10.1675C12.1587 10.5206 12.011 10.8332 11.8258 11.1052C11.6406 11.3773 11.4235 11.6088 11.1746 11.7998C10.9257 11.9908 10.6681 12.1471 10.4019 12.2687C10.1356 12.3902 9.86353 12.48 9.58569 12.5379C9.31363 12.5957 9.05604 12.6247 8.81293 12.6247H0.104192V10.3672H8.81293C9.24706 10.3672 9.58279 10.2398 9.82012 9.98514C10.0632 9.73045 10.1848 9.38893 10.1848 8.96058C10.1848 8.7522 10.153 8.56118 10.0893 8.38753C10.0256 8.21387 9.93299 8.06337 9.81144 7.93603C9.69567 7.80868 9.55095 7.71028 9.3773 7.64082C9.20944 7.57135 9.02131 7.53662 8.81293 7.53662H3.62068C3.25601 7.53662 2.86239 7.47295 2.43983 7.3456C2.01728 7.21247 1.62366 7.00119 1.25899 6.71177C0.900105 6.42235 0.599105 6.0432 0.35599 5.57434C0.118663 5.10547 0 4.53241 0 3.85517C0 3.17792 0.118663 2.60775 0.35599 2.14468C0.599105 1.67581 0.900105 1.29667 1.25899 1.00724C1.62366 0.712033 2.01728 0.500754 2.43983 0.373408C2.86239 0.240273 3.25601 0.173706 3.62068 0.173706H11.3049V2.4312H3.62068C3.19233 2.4312 2.8566 2.56144 2.61349 2.82193C2.37616 3.08241 2.2575 3.42682 2.2575 3.85517C2.2575 4.2893 2.37616 4.63371 2.61349 4.8884C2.8566 5.13731 3.19233 5.26176 3.62068 5.26176H8.81293H8.83029C9.07341 5.26755 9.33099 5.30228 9.60305 5.36595C9.87511 5.42384 10.1443 5.51645 10.4105 5.6438C10.6826 5.77114 10.9402 5.93322 11.1833 6.13003C11.4264 6.32105 11.6406 6.55259 11.8258 6.82464C12.0168 7.0967 12.1673 7.40928 12.2773 7.76237C12.3873 8.11547 12.4423 8.51487 12.4423 8.96058Z" fill="url(#paint19_linear_217_1961)"/>
  <g style="mix-blend-mode:hard-light">
    <path d="M113.815 5.26176H121.743V0.173706H124V12.6247H121.743V7.53662H113.815V12.6247H111.558V0.173706H113.815V5.26176Z" fill="#814C73"/>
  </g>
  <g style="mix-blend-mode:hard-light">
    <path d="M110.45 12.6247H102.306C102.098 12.6247 101.872 12.6015 101.629 12.5552C101.391 12.5031 101.154 12.425 100.917 12.3208C100.685 12.2166 100.462 12.0835 100.248 11.9214C100.034 11.7535 99.843 11.5538 99.6752 11.3223C99.5131 11.0849 99.3829 10.8129 99.2844 10.5061C99.186 10.1935 99.1368 9.84332 99.1368 9.4555V3.34289C99.1368 3.1345 99.16 2.91165 99.2063 2.67432C99.2584 2.4312 99.3365 2.19388 99.4407 1.96234C99.5449 1.72501 99.681 1.49926 99.8488 1.28509C100.017 1.07092 100.216 0.882792 100.448 0.720715C100.685 0.55285 100.957 0.419716 101.264 0.321312C101.571 0.222908 101.918 0.173706 102.306 0.173706H110.45V2.4312H102.306C102.011 2.4312 101.785 2.50935 101.629 2.66564C101.472 2.82193 101.394 3.05346 101.394 3.36025V9.4555C101.394 9.74492 101.472 9.97067 101.629 10.1327C101.791 10.289 102.017 10.3672 102.306 10.3672H110.45V12.6247Z" fill="#814C73"/>
  </g>
  <g style="mix-blend-mode:hard-light">
    <path d="M97.717 12.6247H95.4595V9.56837H87.5235V12.6247H85.266V6.39919C85.266 5.4904 85.4223 4.65397 85.7349 3.8899C86.0474 3.12582 86.4816 2.46883 87.0373 1.91893C87.593 1.36902 88.2499 0.940677 89.0082 0.633888C89.7665 0.3271 90.5943 0.173706 91.4915 0.173706H96.5795C96.7358 0.173706 96.8834 0.202648 97.0223 0.260533C97.1613 0.318418 97.2828 0.399456 97.387 0.503648C97.4912 0.60784 97.5723 0.729398 97.6301 0.868321C97.688 1.00724 97.717 1.15485 97.717 1.31114V12.6247ZM87.5235 7.31087H95.4595V2.4312H91.4915C91.422 2.4312 91.2744 2.44278 91.0487 2.46594C90.8287 2.4833 90.5711 2.5325 90.2759 2.61354C89.9865 2.69458 89.6797 2.81903 89.3555 2.9869C89.0314 3.15476 88.7333 3.3863 88.4612 3.68151C88.1892 3.97672 87.9634 4.34718 87.784 4.7929C87.6103 5.23282 87.5235 5.76825 87.5235 6.39919V7.31087Z" fill="#814C73"/>
  </g>
  <g style="mix-blend-mode:hard-light">
    <path d="M84.315 7.58867C84.315 8.34696 84.1847 9.04447 83.9243 9.6812C83.6638 10.3179 83.302 10.8678 82.8389 11.3309C82.3758 11.794 81.8259 12.1558 81.1892 12.4162C80.5583 12.6709 79.8694 12.7983 79.1227 12.7983H76.0664C75.3197 12.7983 74.628 12.6709 73.9913 12.4162C73.3545 12.1558 72.8046 11.794 72.3416 11.3309C71.8785 10.8678 71.5138 10.3179 71.2475 9.6812C70.9871 9.04447 70.8568 8.34696 70.8568 7.58867V5.20961C70.8568 4.45711 70.9871 3.7625 71.2475 3.12577C71.5138 2.48325 71.8785 1.93334 72.3416 1.47606C72.8046 1.01298 73.3545 0.651201 73.9913 0.390721C74.628 0.13024 75.3197 0 76.0664 0H79.1227C79.8694 0 80.5583 0.13024 81.1892 0.390721C81.8259 0.651201 82.3758 1.01298 82.8389 1.47606C83.302 1.93334 83.6638 2.48325 83.9243 3.12577C84.1847 3.7625 84.315 4.45711 84.315 5.20961V7.58867ZM82.0575 5.20961C82.0575 4.7639 81.9851 4.3616 81.8404 4.00272C81.7015 3.63805 81.5018 3.32836 81.2413 3.07367C80.9866 2.81319 80.6769 2.61349 80.3123 2.47457C79.9534 2.32985 79.5569 2.2575 79.1227 2.2575H76.0664C75.6265 2.2575 75.2242 2.32985 74.8595 2.47457C74.5006 2.61349 74.191 2.81319 73.9305 3.07367C73.67 3.32836 73.4674 3.63805 73.3227 4.00272C73.1838 4.3616 73.1143 4.7639 73.1143 5.20961V7.58867C73.1143 8.03438 73.1838 8.43957 73.3227 8.80424C73.4674 9.16313 73.67 9.47281 73.9305 9.73329C74.191 9.98798 74.5006 10.1877 74.8595 10.3324C75.2242 10.4713 75.6265 10.5408 76.0664 10.5408H79.1054C79.5453 10.5408 79.9447 10.4713 80.3036 10.3324C80.6682 10.1877 80.9808 9.98798 81.2413 9.73329C81.5018 9.47281 81.7015 9.16313 81.8404 8.80424C81.9851 8.43957 82.0575 8.03438 82.0575 7.58867V5.20961Z" fill="#814C73"/>
  </g>
  <g style="mix-blend-mode:hard-light">
    <path d="M70.3487 12.6247H62.2043C61.996 12.6247 61.7702 12.6015 61.5271 12.5552C61.2898 12.5031 61.0524 12.425 60.8151 12.3208C60.5836 12.2166 60.3607 12.0835 60.1465 11.9214C59.9324 11.7535 59.7413 11.5538 59.5735 11.3223C59.4114 11.0849 59.2812 10.8129 59.1828 10.5061C59.0844 10.1935 59.0352 9.84332 59.0352 9.4555V3.34289C59.0352 3.1345 59.0583 2.91165 59.1046 2.67432C59.1567 2.4312 59.2349 2.19388 59.3391 1.96234C59.4432 1.72501 59.5793 1.49926 59.7471 1.28509C59.915 1.07092 60.1147 0.882792 60.3462 0.720715C60.5836 0.55285 60.8556 0.419716 61.1624 0.321312C61.4692 0.222908 61.8165 0.173706 62.2043 0.173706H70.3487V2.4312H62.2043C61.9091 2.4312 61.6834 2.50935 61.5271 2.66564C61.3708 2.82193 61.2927 3.05346 61.2927 3.36025V9.4555C61.2927 9.74492 61.3708 9.97067 61.5271 10.1327C61.6892 10.289 61.9149 10.3672 62.2043 10.3672H70.3487V12.6247Z" fill="#814C73"/>
  </g>
  <g style="mix-blend-mode:hard-light">
    <path d="M54.042 12.6247H43.7444C43.5823 12.6247 43.4318 12.5957 43.2929 12.5379C43.1539 12.48 43.0324 12.4018 42.9282 12.3034C42.8298 12.1992 42.7516 12.0777 42.6938 11.9387C42.6359 11.7998 42.6069 11.6493 42.6069 11.4872V0.173706H44.8644V10.3672H54.042V12.6247Z" fill="#814C73"/>
  </g>
  <g style="mix-blend-mode:hard-light">
    <path d="M41.9945 12.6247H31.6969C31.5348 12.6247 31.3843 12.5957 31.2454 12.5379C31.1065 12.48 30.9849 12.4018 30.8807 12.3034C30.7823 12.1992 30.7042 12.0777 30.6463 11.9387C30.5884 11.7998 30.5594 11.6493 30.5594 11.4872V0.173706H32.8169V10.3672H41.9945V12.6247Z" fill="#814C73"/>
  </g>
  <g style="mix-blend-mode:hard-light">
    <path d="M28.966 12.6247H26.7085V0.173706H28.966V12.6247Z" fill="#814C73"/>
  </g>
  <g style="mix-blend-mode:hard-light">
    <path d="M26.3218 12.6247H23.1179L18.0385 7.53662H16.4496V5.26176H18.0385L23.1179 0.173706H26.3218L19.9226 6.39919L26.3218 12.6247ZM15.5466 12.6247H13.2891V0.173706H15.5466V12.6247Z" fill="#814C73"/>
  </g>
  <g style="mix-blend-mode:hard-light">
    <path d="M12.4423 8.96058C12.4423 9.4063 12.3844 9.80859 12.2686 10.1675C12.1587 10.5206 12.011 10.8332 11.8258 11.1052C11.6406 11.3773 11.4235 11.6088 11.1746 11.7998C10.9257 11.9908 10.6681 12.1471 10.4019 12.2687C10.1356 12.3902 9.86353 12.48 9.58569 12.5379C9.31363 12.5957 9.05604 12.6247 8.81293 12.6247H0.104192V10.3672H8.81293C9.24706 10.3672 9.58279 10.2398 9.82012 9.98514C10.0632 9.73045 10.1848 9.38893 10.1848 8.96058C10.1848 8.7522 10.153 8.56118 10.0893 8.38753C10.0256 8.21387 9.93299 8.06337 9.81144 7.93603C9.69567 7.80868 9.55095 7.71028 9.3773 7.64082C9.20944 7.57135 9.02131 7.53662 8.81293 7.53662H3.62068C3.25601 7.53662 2.86239 7.47295 2.43983 7.3456C2.01728 7.21247 1.62366 7.00119 1.25899 6.71177C0.900105 6.42235 0.599105 6.0432 0.35599 5.57434C0.118663 5.10547 0 4.53241 0 3.85517C0 3.17792 0.118663 2.60775 0.35599 2.14468C0.599105 1.67581 0.900105 1.29667 1.25899 1.00724C1.62366 0.712033 2.01728 0.500754 2.43983 0.373408C2.86239 0.240273 3.25601 0.173706 3.62068 0.173706H11.3049V2.4312H3.62068C3.19233 2.4312 2.8566 2.56144 2.61349 2.82193C2.37616 3.08241 2.2575 3.42682 2.2575 3.85517C2.2575 4.2893 2.37616 4.63371 2.61349 4.8884C2.8566 5.13731 3.19233 5.26176 3.62068 5.26176H8.81293H8.83029C9.07341 5.26755 9.33099 5.30228 9.60305 5.36595C9.87511 5.42384 10.1443 5.51645 10.4105 5.6438C10.6826 5.77114 10.9402 5.93322 11.1833 6.13003C11.4264 6.32105 11.6406 6.55259 11.8258 6.82464C12.0168 7.0967 12.1673 7.40928 12.2773 7.76237C12.3873 8.11547 12.4423 8.51487 12.4423 8.96058Z" fill="#814C73"/>
  </g>
  <defs>
    <linearGradient id="paint0_linear_217_1961" x1="11.1956" y1="-4.11147" x2="121.549" y2="19.9467" gradientUnits="userSpaceOnUse">
      <stop stop-color="#E637B8"/>
      <stop offset="1" stop-color="#43B6FF"/>
    </linearGradient>
    <linearGradient id="paint1_linear_217_1961" x1="11.1956" y1="-4.11147" x2="121.549" y2="19.9467" gradientUnits="userSpaceOnUse">
      <stop stop-color="#E637B8"/>
      <stop offset="1" stop-color="#43B6FF"/>
    </linearGradient>
    <linearGradient id="paint2_linear_217_1961" x1="11.1955" y1="-4.11145" x2="121.549" y2="19.9467" gradientUnits="userSpaceOnUse">
      <stop stop-color="#E637B8"/>
      <stop offset="1" stop-color="#43B6FF"/>
    </linearGradient>
    <linearGradient id="paint3_linear_217_1961" x1="11.1955" y1="-4.11145" x2="121.549" y2="19.9467" gradientUnits="userSpaceOnUse">
      <stop stop-color="#E637B8"/>
      <stop offset="1" stop-color="#43B6FF"/>
    </linearGradient>
    <linearGradient id="paint4_linear_217_1961" x1="11.1955" y1="-4.11145" x2="121.549" y2="19.9467" gradientUnits="userSpaceOnUse">
      <stop stop-color="#E637B8"/>
      <stop offset="1" stop-color="#43B6FF"/>
    </linearGradient>
    <linearGradient id="paint5_linear_217_1961" x1="11.1955" y1="-4.11145" x2="121.549" y2="19.9467" gradientUnits="userSpaceOnUse">
      <stop stop-color="#E637B8"/>
      <stop offset="1" stop-color="#43B6FF"/>
    </linearGradient>
    <linearGradient id="paint6_linear_217_1961" x1="11.1955" y1="-4.11152" x2="121.549" y2="19.9467" gradientUnits="userSpaceOnUse">
      <stop stop-color="#E637B8"/>
      <stop offset="1" stop-color="#43B6FF"/>
    </linearGradient>
    <linearGradient id="paint7_linear_217_1961" x1="11.1955" y1="-4.11152" x2="121.549" y2="19.9467" gradientUnits="userSpaceOnUse">
      <stop stop-color="#E637B8"/>
      <stop offset="1" stop-color="#43B6FF"/>
    </linearGradient>
    <linearGradient id="paint8_linear_217_1961" x1="11.1956" y1="-4.11146" x2="121.549" y2="19.9467" gradientUnits="userSpaceOnUse">
      <stop stop-color="#E637B8"/>
      <stop offset="1" stop-color="#43B6FF"/>
    </linearGradient>
    <linearGradient id="paint9_linear_217_1961" x1="11.1956" y1="-4.11146" x2="121.549" y2="19.9467" gradientUnits="userSpaceOnUse">
      <stop stop-color="#E637B8"/>
      <stop offset="1" stop-color="#43B6FF"/>
    </linearGradient>
    <linearGradient id="paint10_linear_217_1961" x1="11.1955" y1="-4.11145" x2="121.549" y2="19.9467" gradientUnits="userSpaceOnUse">
      <stop stop-color="#E637B8"/>
      <stop offset="1" stop-color="#43B6FF"/>
    </linearGradient>
    <linearGradient id="paint11_linear_217_1961" x1="11.1955" y1="-4.11145" x2="121.549" y2="19.9467" gradientUnits="userSpaceOnUse">
      <stop stop-color="#E637B8"/>
      <stop offset="1" stop-color="#43B6FF"/>
    </linearGradient>
    <linearGradient id="paint12_linear_217_1961" x1="11.1955" y1="-4.11144" x2="121.549" y2="19.9468" gradientUnits="userSpaceOnUse">
      <stop stop-color="#E637B8"/>
      <stop offset="1" stop-color="#43B6FF"/>
    </linearGradient>
    <linearGradient id="paint13_linear_217_1961" x1="11.1955" y1="-4.11144" x2="121.549" y2="19.9468" gradientUnits="userSpaceOnUse">
      <stop stop-color="#E637B8"/>
      <stop offset="1" stop-color="#43B6FF"/>
    </linearGradient>
    <linearGradient id="paint14_linear_217_1961" x1="11.1956" y1="-4.11147" x2="121.549" y2="19.9467" gradientUnits="userSpaceOnUse">
      <stop stop-color="#E637B8"/>
      <stop offset="1" stop-color="#43B6FF"/>
    </linearGradient>
    <linearGradient id="paint15_linear_217_1961" x1="11.1956" y1="-4.11147" x2="121.549" y2="19.9467" gradientUnits="userSpaceOnUse">
      <stop stop-color="#E637B8"/>
      <stop offset="1" stop-color="#43B6FF"/>
    </linearGradient>
    <linearGradient id="paint16_linear_217_1961" x1="11.1955" y1="-4.11147" x2="121.549" y2="19.9467" gradientUnits="userSpaceOnUse">
      <stop stop-color="#E637B8"/>
      <stop offset="1" stop-color="#43B6FF"/>
    </linearGradient>
    <linearGradient id="paint17_linear_217_1961" x1="11.1955" y1="-4.11147" x2="121.549" y2="19.9467" gradientUnits="userSpaceOnUse">
      <stop stop-color="#E637B8"/>
      <stop offset="1" stop-color="#43B6FF"/>
    </linearGradient>
    <linearGradient id="paint18_linear_217_1961" x1="11.1956" y1="-4.11145" x2="121.549" y2="19.9467" gradientUnits="userSpaceOnUse">
      <stop stop-color="#E637B8"/>
      <stop offset="1" stop-color="#43B6FF"/>
    </linearGradient>
    <linearGradient id="paint19_linear_217_1961" x1="11.1956" y1="-4.11145" x2="121.549" y2="19.9467" gradientUnits="userSpaceOnUse">
      <stop stop-color="#E637B8"/>
      <stop offset="1" stop-color="#43B6FF"/>
    </linearGradient>
  </defs>
</svg>