<svg height="50" width="50" fill="none" viewBox="0 0 50 50" xmlns="http://www.w3.org/2000/svg">
<path d="M14.6414 11.5386C12.2715 11.5386 10.0435 12.4615 8.3677 14.1372C6.69192 15.813 5.76904 18.041 5.76904 20.4109C5.76904 21.6294 5.9711 22.782 6.36965 23.8365C6.7811 24.9251 7.39193 25.8826 8.1852 26.6824C9.87285 28.3839 12.3052 29.2833 15.2191 29.2833C15.2414 29.2833 15.2583 29.2846 15.2706 29.2862C15.359 29.5266 15.2669 30.5577 14.2005 32.2759C13.0824 34.0772 11.3936 35.8086 9.56704 37.0259C9.27969 37.2175 9.15156 37.5746 9.25163 37.9051C9.35166 38.2356 9.6563 38.4617 10.0016 38.4617C11.5109 38.4617 14.8692 37.4416 17.9353 34.6313C20.4802 32.2987 23.5138 28.0384 23.5138 20.9887C23.5138 18.3239 22.5945 15.9022 20.9253 14.1697C19.2906 12.473 17.0589 11.5386 14.6414 11.5386Z" fill="#F0F0F0"/>
<path d="M41.7573 14.1697C40.1226 12.473 37.891 11.5386 35.4734 11.5386C33.1036 11.5386 30.8755 12.4615 29.1997 14.1372C27.5239 15.813 26.6011 18.041 26.6011 20.4109C26.6011 21.6294 26.8031 22.782 27.2017 23.8365C27.6131 24.9251 28.224 25.8826 29.0172 26.6824C30.7049 28.3839 33.1372 29.2833 36.0512 29.2833C36.0735 29.2833 36.0904 29.2846 36.1027 29.2862C36.191 29.5266 36.099 30.5577 35.0325 32.2759C33.9144 34.0773 32.2256 35.8086 30.3991 37.0259C30.1117 37.2175 29.9836 37.5746 30.0837 37.9051C30.1837 38.2356 30.4884 38.4617 30.8337 38.4617C32.3429 38.4617 35.7013 37.4416 38.7674 34.6313C41.3122 32.2987 44.3458 28.0384 44.3458 20.9887C44.3458 18.3238 43.4265 15.9022 41.7573 14.1697Z" fill="#F0F0F0"/>
</svg>