<svg height="51" width="51" fill="none" viewBox="0 0 51 51" xmlns="http://www.w3.org/2000/svg">
<path d="M36.2333 11.709C38.6032 11.709 40.8313 12.6319 42.5071 14.3076C44.1828 15.9834 45.1057 18.2114 45.1057 20.5813C45.1057 21.7999 44.9037 22.9524 44.5051 24.0069C44.0937 25.0955 43.4828 26.053 42.6896 26.8528C41.0019 28.5544 38.5696 29.4537 35.6556 29.4537C35.6334 29.4537 35.6164 29.455 35.6041 29.4566C35.5157 29.697 35.6078 30.7281 36.6743 32.4463C37.7924 34.2476 39.4812 35.979 41.3077 37.1963C41.5951 37.3879 41.7232 37.745 41.6231 38.0755C41.5231 38.406 41.2185 38.6321 40.8731 38.6321C39.3639 38.6321 36.0055 37.612 32.9394 34.8017C30.3945 32.4691 27.361 28.2088 27.361 21.1591C27.361 18.4943 28.2802 16.0726 29.9494 14.3401C31.5842 12.6434 33.8159 11.709 36.2333 11.709Z" fill="#F0F0F0"/>
<path d="M9.11742 14.3401C10.7521 12.6434 12.9838 11.709 15.4013 11.709C17.7712 11.709 19.9993 12.6319 21.675 14.3076C23.3508 15.9834 24.2737 18.2114 24.2737 20.5813C24.2737 21.7999 24.0716 22.9524 23.6731 24.0069C23.2616 25.0955 22.6508 26.053 21.8575 26.8528C20.1699 28.5544 17.7375 29.4537 14.8235 29.4537C14.8013 29.4537 14.7844 29.455 14.7721 29.4566C14.6837 29.697 14.7758 30.7281 15.8423 32.4463C16.9603 34.2477 18.6492 35.979 20.4757 37.1963C20.763 37.3879 20.8912 37.745 20.7911 38.0755C20.691 38.406 20.3864 38.6321 20.0411 38.6321C18.5318 38.6321 15.1735 37.612 12.1074 34.8017C9.56252 32.4691 6.52895 28.2088 6.52895 21.1591C6.52898 18.4942 7.44826 16.0726 9.11742 14.3401Z" fill="#F0F0F0"/>
</svg>