<svg xmlns="http://www.w3.org/2000/svg" width="233" height="24" viewBox="0 0 233 24" fill="none">
  <path d="M213.432 9.86707H228.298V0.325684H232.531V23.6744H228.298V14.133H213.432V23.6744H209.199V0.325684H213.432V9.86707Z" fill="url(#paint0_linear_330_112)"/>
  <path d="M213.432 9.86707H228.298V0.325684H232.531V23.6744H228.298V14.133H213.432V23.6744H209.199V0.325684H213.432V9.86707Z" fill="url(#paint1_linear_330_112)"/>
  <path d="M207.122 23.6744H191.85C191.459 23.6744 191.036 23.631 190.58 23.5441C190.135 23.4464 189.69 23.2999 189.245 23.1045C188.81 22.9091 188.392 22.6595 187.991 22.3555C187.589 22.0407 187.231 21.6663 186.916 21.2321C186.612 20.787 186.368 20.2768 186.184 19.7015C185.999 19.1154 185.907 18.4587 185.907 17.7314V6.2687C185.907 5.87792 185.95 5.46001 186.037 5.01496C186.135 4.55906 186.281 4.11401 186.477 3.67982C186.672 3.23477 186.927 2.81144 187.242 2.40981C187.557 2.00818 187.931 1.6554 188.365 1.35146C188.81 1.03667 189.321 0.787013 189.896 0.602481C190.471 0.41795 191.122 0.325684 191.85 0.325684H207.122V4.55906H191.85C191.296 4.55906 190.873 4.7056 190.58 4.99868C190.287 5.29176 190.14 5.72596 190.14 6.30126V17.7314C190.14 18.2741 190.287 18.6975 190.58 19.0014C190.884 19.2945 191.307 19.441 191.85 19.441H207.122V23.6744Z" fill="url(#paint2_linear_330_112)"/>
  <path d="M207.122 23.6744H191.85C191.459 23.6744 191.036 23.631 190.58 23.5441C190.135 23.4464 189.69 23.2999 189.245 23.1045C188.81 22.9091 188.392 22.6595 187.991 22.3555C187.589 22.0407 187.231 21.6663 186.916 21.2321C186.612 20.787 186.368 20.2768 186.184 19.7015C185.999 19.1154 185.907 18.4587 185.907 17.7314V6.2687C185.907 5.87792 185.95 5.46001 186.037 5.01496C186.135 4.55906 186.281 4.11401 186.477 3.67982C186.672 3.23477 186.927 2.81144 187.242 2.40981C187.557 2.00818 187.931 1.6554 188.365 1.35146C188.81 1.03667 189.321 0.787013 189.896 0.602481C190.471 0.41795 191.122 0.325684 191.85 0.325684H207.122V4.55906H191.85C191.296 4.55906 190.873 4.7056 190.58 4.99868C190.287 5.29176 190.14 5.72596 190.14 6.30126V17.7314C190.14 18.2741 190.287 18.6975 190.58 19.0014C190.884 19.2945 191.307 19.441 191.85 19.441H207.122V23.6744Z" fill="url(#paint3_linear_330_112)"/>
  <path d="M183.244 23.6744H179.011V17.9431H164.129V23.6744H159.895V12C159.895 10.2958 160.188 8.72731 160.775 7.29448C161.361 5.86164 162.175 4.62962 163.217 3.59841C164.259 2.5672 165.491 1.76395 166.913 1.18864C168.335 0.613336 169.887 0.325684 171.57 0.325684H181.111C181.404 0.325684 181.681 0.379958 181.941 0.488506C182.202 0.597054 182.43 0.749021 182.625 0.944408C182.821 1.13979 182.973 1.36775 183.081 1.62826C183.19 1.88878 183.244 2.16558 183.244 2.45866V23.6744ZM164.129 13.7097H179.011V4.55906H171.57C171.439 4.55906 171.163 4.58077 170.739 4.62419C170.327 4.65676 169.844 4.74902 169.29 4.90099C168.747 5.05296 168.172 5.28633 167.564 5.60112C166.956 5.91591 166.397 6.35011 165.887 6.9037C165.377 7.4573 164.954 8.15201 164.617 8.98783C164.291 9.81279 164.129 10.8169 164.129 12V13.7097Z" fill="url(#paint4_linear_330_112)"/>
  <path d="M183.244 23.6744H179.011V17.9431H164.129V23.6744H159.895V12C159.895 10.2958 160.188 8.72731 160.775 7.29448C161.361 5.86164 162.175 4.62962 163.217 3.59841C164.259 2.5672 165.491 1.76395 166.913 1.18864C168.335 0.613336 169.887 0.325684 171.57 0.325684H181.111C181.404 0.325684 181.681 0.379958 181.941 0.488506C182.202 0.597054 182.43 0.749021 182.625 0.944408C182.821 1.13979 182.973 1.36775 183.081 1.62826C183.19 1.88878 183.244 2.16558 183.244 2.45866V23.6744ZM164.129 13.7097H179.011V4.55906H171.57C171.439 4.55906 171.163 4.58077 170.739 4.62419C170.327 4.65676 169.844 4.74902 169.29 4.90099C168.747 5.05296 168.172 5.28633 167.564 5.60112C166.956 5.91591 166.397 6.35011 165.887 6.9037C165.377 7.4573 164.954 8.15201 164.617 8.98783C164.291 9.81279 164.129 10.8169 164.129 12V13.7097Z" fill="url(#paint5_linear_330_112)"/>
  <path d="M158.112 14.2307C158.112 15.6526 157.868 16.9607 157.379 18.1547C156.891 19.3487 156.212 20.3799 155.344 21.2483C154.476 22.1167 153.444 22.7951 152.25 23.2836C151.067 23.7612 149.775 24 148.375 24H142.644C141.244 24 139.946 23.7612 138.752 23.2836C137.558 22.7951 136.527 22.1167 135.659 21.2483C134.79 20.3799 134.107 19.3487 133.607 18.1547C133.119 16.9607 132.875 15.6526 132.875 14.2307V9.76933C132.875 8.35821 133.119 7.05563 133.607 5.8616C134.107 4.65672 134.79 3.62551 135.659 2.76798C136.527 1.89959 137.558 1.22117 138.752 0.7327C139.946 0.244233 141.244 0 142.644 0H148.375C149.775 0 151.067 0.244233 152.25 0.7327C153.444 1.22117 154.476 1.89959 155.344 2.76798C156.212 3.62551 156.891 4.65672 157.379 5.8616C157.868 7.05563 158.112 8.35821 158.112 9.76933V14.2307ZM153.879 9.76933C153.879 8.93351 153.743 8.1791 153.472 7.50611C153.211 6.82225 152.837 6.24152 152.348 5.76391C151.87 5.27544 151.29 4.90095 150.606 4.64043C149.933 4.36906 149.189 4.23338 148.375 4.23338H142.644C141.819 4.23338 141.064 4.36906 140.381 4.64043C139.708 4.90095 139.127 5.27544 138.638 5.76391C138.15 6.24152 137.77 6.82225 137.499 7.50611C137.238 8.1791 137.108 8.93351 137.108 9.76933V14.2307C137.108 15.0665 137.238 15.8263 137.499 16.5102C137.77 17.1832 138.15 17.7639 138.638 18.2524C139.127 18.73 139.708 19.1045 140.381 19.3758C141.064 19.6364 141.819 19.7666 142.644 19.7666H148.343C149.168 19.7666 149.917 19.6364 150.59 19.3758C151.273 19.1045 151.86 18.73 152.348 18.2524C152.837 17.7639 153.211 17.1832 153.472 16.5102C153.743 15.8263 153.879 15.0665 153.879 14.2307V9.76933Z" fill="url(#paint6_linear_330_112)"/>
  <path d="M158.112 14.2307C158.112 15.6526 157.868 16.9607 157.379 18.1547C156.891 19.3487 156.212 20.3799 155.344 21.2483C154.476 22.1167 153.444 22.7951 152.25 23.2836C151.067 23.7612 149.775 24 148.375 24H142.644C141.244 24 139.946 23.7612 138.752 23.2836C137.558 22.7951 136.527 22.1167 135.659 21.2483C134.79 20.3799 134.107 19.3487 133.607 18.1547C133.119 16.9607 132.875 15.6526 132.875 14.2307V9.76933C132.875 8.35821 133.119 7.05563 133.607 5.8616C134.107 4.65672 134.79 3.62551 135.659 2.76798C136.527 1.89959 137.558 1.22117 138.752 0.7327C139.946 0.244233 141.244 0 142.644 0H148.375C149.775 0 151.067 0.244233 152.25 0.7327C153.444 1.22117 154.476 1.89959 155.344 2.76798C156.212 3.62551 156.891 4.65672 157.379 5.8616C157.868 7.05563 158.112 8.35821 158.112 9.76933V14.2307ZM153.879 9.76933C153.879 8.93351 153.743 8.1791 153.472 7.50611C153.211 6.82225 152.837 6.24152 152.348 5.76391C151.87 5.27544 151.29 4.90095 150.606 4.64043C149.933 4.36906 149.189 4.23338 148.375 4.23338H142.644C141.819 4.23338 141.064 4.36906 140.381 4.64043C139.708 4.90095 139.127 5.27544 138.638 5.76391C138.15 6.24152 137.77 6.82225 137.499 7.50611C137.238 8.1791 137.108 8.93351 137.108 9.76933V14.2307C137.108 15.0665 137.238 15.8263 137.499 16.5102C137.77 17.1832 138.15 17.7639 138.638 18.2524C139.127 18.73 139.708 19.1045 140.381 19.3758C141.064 19.6364 141.819 19.7666 142.644 19.7666H148.343C149.168 19.7666 149.917 19.6364 150.59 19.3758C151.273 19.1045 151.86 18.73 152.348 18.2524C152.837 17.7639 153.211 17.1832 153.472 16.5102C153.743 15.8263 153.879 15.0665 153.879 14.2307V9.76933Z" fill="url(#paint7_linear_330_112)"/>
  <path d="M131.922 23.6744H116.649C116.258 23.6744 115.835 23.631 115.379 23.5441C114.934 23.4464 114.489 23.2999 114.044 23.1045C113.609 22.9091 113.192 22.6595 112.79 22.3555C112.388 22.0407 112.03 21.6663 111.715 21.2321C111.411 20.787 111.167 20.2768 110.983 19.7015C110.798 19.1154 110.706 18.4587 110.706 17.7314V6.2687C110.706 5.87792 110.749 5.46001 110.836 5.01496C110.934 4.55906 111.08 4.11401 111.276 3.67982C111.471 3.23477 111.726 2.81144 112.041 2.40981C112.356 2.00818 112.73 1.6554 113.164 1.35146C113.609 1.03667 114.12 0.787013 114.695 0.602481C115.27 0.41795 115.922 0.325684 116.649 0.325684H131.922V4.55906H116.649C116.095 4.55906 115.672 4.7056 115.379 4.99868C115.086 5.29176 114.939 5.72596 114.939 6.30126V17.7314C114.939 18.2741 115.086 18.6975 115.379 19.0014C115.683 19.2945 116.106 19.441 116.649 19.441H131.922V23.6744Z" fill="url(#paint8_linear_330_112)"/>
  <path d="M131.922 23.6744H116.649C116.258 23.6744 115.835 23.631 115.379 23.5441C114.934 23.4464 114.489 23.2999 114.044 23.1045C113.609 22.9091 113.192 22.6595 112.79 22.3555C112.388 22.0407 112.03 21.6663 111.715 21.2321C111.411 20.787 111.167 20.2768 110.983 19.7015C110.798 19.1154 110.706 18.4587 110.706 17.7314V6.2687C110.706 5.87792 110.749 5.46001 110.836 5.01496C110.934 4.55906 111.08 4.11401 111.276 3.67982C111.471 3.23477 111.726 2.81144 112.041 2.40981C112.356 2.00818 112.73 1.6554 113.164 1.35146C113.609 1.03667 114.12 0.787013 114.695 0.602481C115.27 0.41795 115.922 0.325684 116.649 0.325684H131.922V4.55906H116.649C116.095 4.55906 115.672 4.7056 115.379 4.99868C115.086 5.29176 114.939 5.72596 114.939 6.30126V17.7314C114.939 18.2741 115.086 18.6975 115.379 19.0014C115.683 19.2945 116.106 19.441 116.649 19.441H131.922V23.6744Z" fill="url(#paint9_linear_330_112)"/>
  <path d="M101.342 23.6744H82.0317C81.7277 23.6744 81.4455 23.6201 81.185 23.5116C80.9245 23.403 80.6965 23.2565 80.5011 23.072C80.3166 22.8766 80.1701 22.6486 80.0615 22.3881C79.953 22.1276 79.8987 21.8454 79.8987 21.5414V0.325684H84.1321V19.441H101.342V23.6744Z" fill="url(#paint10_linear_330_112)"/>
  <path d="M101.342 23.6744H82.0317C81.7277 23.6744 81.4455 23.6201 81.185 23.5116C80.9245 23.403 80.6965 23.2565 80.5011 23.072C80.3166 22.8766 80.1701 22.6486 80.0615 22.3881C79.953 22.1276 79.8987 21.8454 79.8987 21.5414V0.325684H84.1321V19.441H101.342V23.6744Z" fill="url(#paint11_linear_330_112)"/>
  <path d="M78.7503 23.6744H59.4396C59.1357 23.6744 58.8535 23.6201 58.5929 23.5116C58.3324 23.403 58.1045 23.2565 57.9091 23.072C57.7246 22.8766 57.578 22.6486 57.4695 22.3881C57.3609 22.1276 57.3066 21.8454 57.3066 21.5414V0.325684H61.54V19.441H78.7503V23.6744Z" fill="url(#paint12_linear_330_112)"/>
  <path d="M78.7503 23.6744H59.4396C59.1357 23.6744 58.8535 23.6201 58.5929 23.5116C58.3324 23.403 58.1045 23.2565 57.9091 23.072C57.7246 22.8766 57.578 22.6486 57.4695 22.3881C57.3609 22.1276 57.3066 21.8454 57.3066 21.5414V0.325684H61.54V19.441H78.7503V23.6744Z" fill="url(#paint13_linear_330_112)"/>
  <path d="M54.3183 23.6744H50.085V0.325684H54.3183V23.6744Z" fill="url(#paint14_linear_330_112)"/>
  <path d="M54.3183 23.6744H50.085V0.325684H54.3183V23.6744Z" fill="url(#paint15_linear_330_112)"/>
  <path d="M49.36 23.6744H43.3519L33.8268 14.133H30.8471V9.86707H33.8268L43.3519 0.325684H49.36L37.36 12L49.36 23.6744ZM29.1538 23.6744H24.9204V0.325684H29.1538V23.6744Z" fill="url(#paint16_linear_330_112)"/>
  <path d="M49.36 23.6744H43.3519L33.8268 14.133H30.8471V9.86707H33.8268L43.3519 0.325684H49.36L37.36 12L49.36 23.6744ZM29.1538 23.6744H24.9204V0.325684H29.1538V23.6744Z" fill="url(#paint17_linear_330_112)"/>
  <path d="M23.3324 16.8033C23.3324 17.6391 23.2239 18.3935 23.0068 19.0665C22.8005 19.7287 22.5237 20.3148 22.1764 20.825C21.829 21.3352 21.422 21.7694 20.9552 22.1276C20.4885 22.4858 20.0054 22.7789 19.5061 23.0068C19.0068 23.2348 18.4966 23.403 17.9756 23.5116C17.4654 23.6201 16.9824 23.6744 16.5265 23.6744H0.195387V19.441H16.5265C17.3406 19.441 17.9701 19.2022 18.4152 18.7246C18.8711 18.247 19.099 17.6066 19.099 16.8033C19.099 16.4125 19.0393 16.0543 18.9199 15.7287C18.8005 15.403 18.6269 15.1208 18.3989 14.882C18.1818 14.6432 17.9104 14.4587 17.5848 14.3284C17.27 14.1981 16.9172 14.133 16.5265 14.133H6.78969C6.10583 14.133 5.36771 14.0136 4.5753 13.7748C3.7829 13.5251 3.04478 13.1289 2.36092 12.5862C1.68792 12.0435 1.12347 11.3325 0.667571 10.4532C0.222524 9.57399 0 8.49936 0 7.22935C0 5.95933 0.222524 4.89013 0.667571 4.02175C1.12347 3.14251 1.68792 2.43152 2.36092 1.88878C3.04478 1.33518 3.7829 0.938981 4.5753 0.700175C5.36771 0.450514 6.10583 0.325684 6.78969 0.325684H21.1995V4.55906H6.78969C5.98643 4.55906 5.35685 4.8033 4.90095 5.29176C4.4559 5.78023 4.23338 6.42609 4.23338 7.22935C4.23338 8.04346 4.4559 8.68932 4.90095 9.16693C5.35685 9.63369 5.98643 9.86707 6.78969 9.86707H16.5265H16.559C17.0149 9.87792 17.498 9.94305 18.0081 10.0625C18.5183 10.171 19.0231 10.3447 19.5224 10.5835C20.0326 10.8223 20.5156 11.1262 20.9715 11.4953C21.4274 11.8535 21.829 12.2877 22.1764 12.7979C22.5346 13.308 22.8168 13.8942 23.0231 14.5563C23.2293 15.2185 23.3324 15.9675 23.3324 16.8033Z" fill="url(#paint18_linear_330_112)"/>
  <path d="M23.3324 16.8033C23.3324 17.6391 23.2239 18.3935 23.0068 19.0665C22.8005 19.7287 22.5237 20.3148 22.1764 20.825C21.829 21.3352 21.422 21.7694 20.9552 22.1276C20.4885 22.4858 20.0054 22.7789 19.5061 23.0068C19.0068 23.2348 18.4966 23.403 17.9756 23.5116C17.4654 23.6201 16.9824 23.6744 16.5265 23.6744H0.195387V19.441H16.5265C17.3406 19.441 17.9701 19.2022 18.4152 18.7246C18.8711 18.247 19.099 17.6066 19.099 16.8033C19.099 16.4125 19.0393 16.0543 18.9199 15.7287C18.8005 15.403 18.6269 15.1208 18.3989 14.882C18.1818 14.6432 17.9104 14.4587 17.5848 14.3284C17.27 14.1981 16.9172 14.133 16.5265 14.133H6.78969C6.10583 14.133 5.36771 14.0136 4.5753 13.7748C3.7829 13.5251 3.04478 13.1289 2.36092 12.5862C1.68792 12.0435 1.12347 11.3325 0.667571 10.4532C0.222524 9.57399 0 8.49936 0 7.22935C0 5.95933 0.222524 4.89013 0.667571 4.02175C1.12347 3.14251 1.68792 2.43152 2.36092 1.88878C3.04478 1.33518 3.7829 0.938981 4.5753 0.700175C5.36771 0.450514 6.10583 0.325684 6.78969 0.325684H21.1995V4.55906H6.78969C5.98643 4.55906 5.35685 4.8033 4.90095 5.29176C4.4559 5.78023 4.23338 6.42609 4.23338 7.22935C4.23338 8.04346 4.4559 8.68932 4.90095 9.16693C5.35685 9.63369 5.98643 9.86707 6.78969 9.86707H16.5265H16.559C17.0149 9.87792 17.498 9.94305 18.0081 10.0625C18.5183 10.171 19.0231 10.3447 19.5224 10.5835C20.0326 10.8223 20.5156 11.1262 20.9715 11.4953C21.4274 11.8535 21.829 12.2877 22.1764 12.7979C22.5346 13.308 22.8168 13.8942 23.0231 14.5563C23.2293 15.2185 23.3324 15.9675 23.3324 16.8033Z" fill="url(#paint19_linear_330_112)"/>
  <g style="mix-blend-mode:hard-light">
    <path d="M213.432 9.86707H228.298V0.325684H232.531V23.6744H228.298V14.133H213.432V23.6744H209.199V0.325684H213.432V9.86707Z" fill="#814C73"/>
  </g>
  <g style="mix-blend-mode:hard-light">
    <path d="M207.122 23.6744H191.85C191.459 23.6744 191.036 23.631 190.58 23.5441C190.135 23.4464 189.69 23.2999 189.245 23.1045C188.81 22.9091 188.392 22.6595 187.991 22.3555C187.589 22.0407 187.231 21.6663 186.916 21.2321C186.612 20.787 186.368 20.2768 186.184 19.7015C185.999 19.1154 185.907 18.4587 185.907 17.7314V6.2687C185.907 5.87792 185.95 5.46001 186.037 5.01496C186.135 4.55906 186.281 4.11401 186.477 3.67982C186.672 3.23477 186.927 2.81144 187.242 2.40981C187.557 2.00818 187.931 1.6554 188.365 1.35146C188.81 1.03667 189.321 0.787013 189.896 0.602481C190.471 0.41795 191.122 0.325684 191.85 0.325684H207.122V4.55906H191.85C191.296 4.55906 190.873 4.7056 190.58 4.99868C190.287 5.29176 190.14 5.72596 190.14 6.30126V17.7314C190.14 18.2741 190.287 18.6975 190.58 19.0014C190.884 19.2945 191.307 19.441 191.85 19.441H207.122V23.6744Z" fill="#814C73"/>
  </g>
  <g style="mix-blend-mode:hard-light">
    <path d="M183.244 23.6744H179.011V17.9431H164.129V23.6744H159.895V12C159.895 10.2958 160.188 8.72731 160.775 7.29448C161.361 5.86164 162.175 4.62962 163.217 3.59841C164.259 2.5672 165.491 1.76395 166.913 1.18864C168.335 0.613336 169.887 0.325684 171.57 0.325684H181.111C181.404 0.325684 181.681 0.379958 181.941 0.488506C182.202 0.597054 182.43 0.749021 182.625 0.944408C182.821 1.13979 182.973 1.36775 183.081 1.62826C183.19 1.88878 183.244 2.16558 183.244 2.45866V23.6744ZM164.129 13.7097H179.011V4.55906H171.57C171.439 4.55906 171.163 4.58077 170.739 4.62419C170.327 4.65676 169.844 4.74902 169.29 4.90099C168.747 5.05296 168.172 5.28633 167.564 5.60112C166.956 5.91591 166.397 6.35011 165.887 6.9037C165.377 7.4573 164.954 8.15201 164.617 8.98783C164.291 9.81279 164.129 10.8169 164.129 12V13.7097Z" fill="#814C73"/>
  </g>
  <g style="mix-blend-mode:hard-light">
    <path d="M158.112 14.2307C158.112 15.6526 157.868 16.9607 157.379 18.1547C156.891 19.3487 156.212 20.3799 155.344 21.2483C154.476 22.1167 153.444 22.7951 152.25 23.2836C151.067 23.7612 149.775 24 148.375 24H142.644C141.244 24 139.946 23.7612 138.752 23.2836C137.558 22.7951 136.527 22.1167 135.659 21.2483C134.79 20.3799 134.107 19.3487 133.607 18.1547C133.119 16.9607 132.875 15.6526 132.875 14.2307V9.76933C132.875 8.35821 133.119 7.05563 133.607 5.8616C134.107 4.65672 134.79 3.62551 135.659 2.76798C136.527 1.89959 137.558 1.22117 138.752 0.7327C139.946 0.244233 141.244 0 142.644 0H148.375C149.775 0 151.067 0.244233 152.25 0.7327C153.444 1.22117 154.476 1.89959 155.344 2.76798C156.212 3.62551 156.891 4.65672 157.379 5.8616C157.868 7.05563 158.112 8.35821 158.112 9.76933V14.2307ZM153.879 9.76933C153.879 8.93351 153.743 8.1791 153.472 7.50611C153.211 6.82225 152.837 6.24152 152.348 5.76391C151.87 5.27544 151.29 4.90095 150.606 4.64043C149.933 4.36906 149.189 4.23338 148.375 4.23338H142.644C141.819 4.23338 141.064 4.36906 140.381 4.64043C139.708 4.90095 139.127 5.27544 138.638 5.76391C138.15 6.24152 137.77 6.82225 137.499 7.50611C137.238 8.1791 137.108 8.93351 137.108 9.76933V14.2307C137.108 15.0665 137.238 15.8263 137.499 16.5102C137.77 17.1832 138.15 17.7639 138.638 18.2524C139.127 18.73 139.708 19.1045 140.381 19.3758C141.064 19.6364 141.819 19.7666 142.644 19.7666H148.343C149.168 19.7666 149.917 19.6364 150.59 19.3758C151.273 19.1045 151.86 18.73 152.348 18.2524C152.837 17.7639 153.211 17.1832 153.472 16.5102C153.743 15.8263 153.879 15.0665 153.879 14.2307V9.76933Z" fill="#814C73"/>
  </g>
  <g style="mix-blend-mode:hard-light">
    <path d="M131.922 23.6744H116.649C116.258 23.6744 115.835 23.631 115.379 23.5441C114.934 23.4464 114.489 23.2999 114.044 23.1045C113.609 22.9091 113.192 22.6595 112.79 22.3555C112.388 22.0407 112.03 21.6663 111.715 21.2321C111.411 20.787 111.167 20.2768 110.983 19.7015C110.798 19.1154 110.706 18.4587 110.706 17.7314V6.2687C110.706 5.87792 110.749 5.46001 110.836 5.01496C110.934 4.55906 111.08 4.11401 111.276 3.67982C111.471 3.23477 111.726 2.81144 112.041 2.40981C112.356 2.00818 112.73 1.6554 113.164 1.35146C113.609 1.03667 114.12 0.787013 114.695 0.602481C115.27 0.41795 115.922 0.325684 116.649 0.325684H131.922V4.55906H116.649C116.095 4.55906 115.672 4.7056 115.379 4.99868C115.086 5.29176 114.939 5.72596 114.939 6.30126V17.7314C114.939 18.2741 115.086 18.6975 115.379 19.0014C115.683 19.2945 116.106 19.441 116.649 19.441H131.922V23.6744Z" fill="#814C73"/>
  </g>
  <g style="mix-blend-mode:hard-light">
    <path d="M101.342 23.6744H82.0317C81.7277 23.6744 81.4455 23.6201 81.185 23.5116C80.9245 23.403 80.6965 23.2565 80.5011 23.072C80.3166 22.8766 80.1701 22.6486 80.0615 22.3881C79.953 22.1276 79.8987 21.8454 79.8987 21.5414V0.325684H84.1321V19.441H101.342V23.6744Z" fill="#814C73"/>
  </g>
  <g style="mix-blend-mode:hard-light">
    <path d="M78.7503 23.6744H59.4396C59.1357 23.6744 58.8535 23.6201 58.5929 23.5116C58.3324 23.403 58.1045 23.2565 57.9091 23.072C57.7246 22.8766 57.578 22.6486 57.4695 22.3881C57.3609 22.1276 57.3066 21.8454 57.3066 21.5414V0.325684H61.54V19.441H78.7503V23.6744Z" fill="#814C73"/>
  </g>
  <g style="mix-blend-mode:hard-light">
    <path d="M54.3183 23.6744H50.085V0.325684H54.3183V23.6744Z" fill="#814C73"/>
  </g>
  <g style="mix-blend-mode:hard-light">
    <path d="M49.36 23.6744H43.3519L33.8268 14.133H30.8471V9.86707H33.8268L43.3519 0.325684H49.36L37.36 12L49.36 23.6744ZM29.1538 23.6744H24.9204V0.325684H29.1538V23.6744Z" fill="#814C73"/>
  </g>
  <g style="mix-blend-mode:hard-light">
    <path d="M23.3324 16.8033C23.3324 17.6391 23.2239 18.3935 23.0068 19.0665C22.8005 19.7287 22.5237 20.3148 22.1764 20.825C21.829 21.3352 21.422 21.7694 20.9552 22.1276C20.4885 22.4858 20.0054 22.7789 19.5061 23.0068C19.0068 23.2348 18.4966 23.403 17.9756 23.5116C17.4654 23.6201 16.9824 23.6744 16.5265 23.6744H0.195387V19.441H16.5265C17.3406 19.441 17.9701 19.2022 18.4152 18.7246C18.8711 18.247 19.099 17.6066 19.099 16.8033C19.099 16.4125 19.0393 16.0543 18.9199 15.7287C18.8005 15.403 18.6269 15.1208 18.3989 14.882C18.1818 14.6432 17.9104 14.4587 17.5848 14.3284C17.27 14.1981 16.9172 14.133 16.5265 14.133H6.78969C6.10583 14.133 5.36771 14.0136 4.5753 13.7748C3.7829 13.5251 3.04478 13.1289 2.36092 12.5862C1.68792 12.0435 1.12347 11.3325 0.667571 10.4532C0.222524 9.57399 0 8.49936 0 7.22935C0 5.95933 0.222524 4.89013 0.667571 4.02175C1.12347 3.14251 1.68792 2.43152 2.36092 1.88878C3.04478 1.33518 3.7829 0.938981 4.5753 0.700175C5.36771 0.450514 6.10583 0.325684 6.78969 0.325684H21.1995V4.55906H6.78969C5.98643 4.55906 5.35685 4.8033 4.90095 5.29176C4.4559 5.78023 4.23338 6.42609 4.23338 7.22935C4.23338 8.04346 4.4559 8.68932 4.90095 9.16693C5.35685 9.63369 5.98643 9.86707 6.78969 9.86707H16.5265H16.559C17.0149 9.87792 17.498 9.94305 18.0081 10.0625C18.5183 10.171 19.0231 10.3447 19.5224 10.5835C20.0326 10.8223 20.5156 11.1262 20.9715 11.4953C21.4274 11.8535 21.829 12.2877 22.1764 12.7979C22.5346 13.308 22.8168 13.8942 23.0231 14.5563C23.2293 15.2185 23.3324 15.9675 23.3324 16.8033Z" fill="#814C73"/>
  </g>
  <defs>
    <linearGradient id="paint0_linear_330_112" x1="20.9944" y1="-7.71009" x2="227.936" y2="37.4051" gradientUnits="userSpaceOnUse">
      <stop stop-color="#E637B8"/>
      <stop offset="1" stop-color="#43B6FF"/>
    </linearGradient>
    <linearGradient id="paint1_linear_330_112" x1="20.9944" y1="-7.71009" x2="227.936" y2="37.4051" gradientUnits="userSpaceOnUse">
      <stop stop-color="#E637B8"/>
      <stop offset="1" stop-color="#43B6FF"/>
    </linearGradient>
    <linearGradient id="paint2_linear_330_112" x1="20.9946" y1="-7.71006" x2="227.936" y2="37.4051" gradientUnits="userSpaceOnUse">
      <stop stop-color="#E637B8"/>
      <stop offset="1" stop-color="#43B6FF"/>
    </linearGradient>
    <linearGradient id="paint3_linear_330_112" x1="20.9946" y1="-7.71006" x2="227.936" y2="37.4051" gradientUnits="userSpaceOnUse">
      <stop stop-color="#E637B8"/>
      <stop offset="1" stop-color="#43B6FF"/>
    </linearGradient>
    <linearGradient id="paint4_linear_330_112" x1="20.9945" y1="-7.71007" x2="227.936" y2="37.4051" gradientUnits="userSpaceOnUse">
      <stop stop-color="#E637B8"/>
      <stop offset="1" stop-color="#43B6FF"/>
    </linearGradient>
    <linearGradient id="paint5_linear_330_112" x1="20.9945" y1="-7.71007" x2="227.936" y2="37.4051" gradientUnits="userSpaceOnUse">
      <stop stop-color="#E637B8"/>
      <stop offset="1" stop-color="#43B6FF"/>
    </linearGradient>
    <linearGradient id="paint6_linear_330_112" x1="20.9946" y1="-7.71013" x2="227.936" y2="37.4051" gradientUnits="userSpaceOnUse">
      <stop stop-color="#E637B8"/>
      <stop offset="1" stop-color="#43B6FF"/>
    </linearGradient>
    <linearGradient id="paint7_linear_330_112" x1="20.9946" y1="-7.71013" x2="227.936" y2="37.4051" gradientUnits="userSpaceOnUse">
      <stop stop-color="#E637B8"/>
      <stop offset="1" stop-color="#43B6FF"/>
    </linearGradient>
    <linearGradient id="paint8_linear_330_112" x1="20.9946" y1="-7.71008" x2="227.936" y2="37.4051" gradientUnits="userSpaceOnUse">
      <stop stop-color="#E637B8"/>
      <stop offset="1" stop-color="#43B6FF"/>
    </linearGradient>
    <linearGradient id="paint9_linear_330_112" x1="20.9946" y1="-7.71008" x2="227.936" y2="37.4051" gradientUnits="userSpaceOnUse">
      <stop stop-color="#E637B8"/>
      <stop offset="1" stop-color="#43B6FF"/>
    </linearGradient>
    <linearGradient id="paint10_linear_330_112" x1="20.9944" y1="-7.71006" x2="227.936" y2="37.4051" gradientUnits="userSpaceOnUse">
      <stop stop-color="#E637B8"/>
      <stop offset="1" stop-color="#43B6FF"/>
    </linearGradient>
    <linearGradient id="paint11_linear_330_112" x1="20.9944" y1="-7.71006" x2="227.936" y2="37.4051" gradientUnits="userSpaceOnUse">
      <stop stop-color="#E637B8"/>
      <stop offset="1" stop-color="#43B6FF"/>
    </linearGradient>
    <linearGradient id="paint12_linear_330_112" x1="20.9944" y1="-7.71005" x2="227.936" y2="37.4051" gradientUnits="userSpaceOnUse">
      <stop stop-color="#E637B8"/>
      <stop offset="1" stop-color="#43B6FF"/>
    </linearGradient>
    <linearGradient id="paint13_linear_330_112" x1="20.9944" y1="-7.71005" x2="227.936" y2="37.4051" gradientUnits="userSpaceOnUse">
      <stop stop-color="#E637B8"/>
      <stop offset="1" stop-color="#43B6FF"/>
    </linearGradient>
    <linearGradient id="paint14_linear_330_112" x1="20.9944" y1="-7.7101" x2="227.936" y2="37.4051" gradientUnits="userSpaceOnUse">
      <stop stop-color="#E637B8"/>
      <stop offset="1" stop-color="#43B6FF"/>
    </linearGradient>
    <linearGradient id="paint15_linear_330_112" x1="20.9944" y1="-7.7101" x2="227.936" y2="37.4051" gradientUnits="userSpaceOnUse">
      <stop stop-color="#E637B8"/>
      <stop offset="1" stop-color="#43B6FF"/>
    </linearGradient>
    <linearGradient id="paint16_linear_330_112" x1="20.9945" y1="-7.7101" x2="227.936" y2="37.4051" gradientUnits="userSpaceOnUse">
      <stop stop-color="#E637B8"/>
      <stop offset="1" stop-color="#43B6FF"/>
    </linearGradient>
    <linearGradient id="paint17_linear_330_112" x1="20.9945" y1="-7.7101" x2="227.936" y2="37.4051" gradientUnits="userSpaceOnUse">
      <stop stop-color="#E637B8"/>
      <stop offset="1" stop-color="#43B6FF"/>
    </linearGradient>
    <linearGradient id="paint18_linear_330_112" x1="20.9945" y1="-7.71007" x2="227.936" y2="37.4051" gradientUnits="userSpaceOnUse">
      <stop stop-color="#E637B8"/>
      <stop offset="1" stop-color="#43B6FF"/>
    </linearGradient>
    <linearGradient id="paint19_linear_330_112" x1="20.9945" y1="-7.71007" x2="227.936" y2="37.4051" gradientUnits="userSpaceOnUse">
      <stop stop-color="#E637B8"/>
      <stop offset="1" stop-color="#43B6FF"/>
    </linearGradient>
  </defs>
</svg>